<svg xmlns="http://www.w3.org/2000/svg" xmlns:xlink="http://www.w3.org/1999/xlink" zoomAndPan="magnify" viewBox="215 235 385 375" preserveAspectRatio="xMidYMid meet" version="1.0"><defs><clipPath id="351ffd8142"><path d="M 0 25.828125 L 810 25.828125 L 810 784.078125 L 0 784.078125 Z M 0 25.828125 " clip-rule="nonzero"/></clipPath></defs><rect x="-81" width="972"  fill="none"/><rect x="-81" width="972"  fill="none"/><path fill="#f4f4f3" d="M 395.777344 273.269531 C 396.421875 273.269531 397.0625 273.269531 397.726562 273.269531 C 399.085938 273.269531 400.449219 273.269531 401.808594 273.273438 C 403.902344 273.277344 405.992188 273.273438 408.082031 273.269531 C 409.402344 273.269531 410.71875 273.269531 412.039062 273.269531 C 413.851562 273.273438 413.851562 273.273438 415.703125 273.273438 C 418.472656 273.398438 418.472656 273.398438 419.441406 274.371094 C 419.378906 276.011719 419.246094 277.652344 419.078125 279.285156 C 418.980469 280.246094 418.886719 281.203125 418.785156 282.191406 C 418.394531 285.738281 417.96875 289.277344 417.5 292.816406 C 415.894531 293.1875 414.273438 293.511719 412.648438 293.789062 C 411.675781 292.816406 411.675781 292.816406 411.582031 290.386719 C 411.597656 288.917969 411.597656 288.917969 411.613281 287.417969 C 411.625 286.433594 411.632812 285.453125 411.640625 284.441406 C 411.660156 283.300781 411.660156 283.300781 411.675781 282.136719 C 392.246094 291.777344 392.246094 291.777344 373.007812 301.785156 C 365.425781 305.804688 357.738281 309.605469 350.054688 313.425781 C 341.394531 317.742188 332.820312 322.207031 324.300781 326.796875 C 327.464844 329.308594 330.601562 330.886719 334.292969 332.46875 C 335.949219 333.59375 335.949219 333.59375 336.667969 335.660156 C 336.75 336.261719 336.835938 336.859375 336.921875 337.476562 C 334.4375 338.441406 332.675781 338.65625 330.136719 337.789062 C 327.902344 336.75 325.738281 335.621094 323.574219 334.445312 C 322.816406 334.0625 322.058594 333.683594 321.277344 333.289062 C 320.558594 332.90625 319.839844 332.523438 319.097656 332.128906 C 318.441406 331.785156 317.785156 331.4375 317.113281 331.078125 C 315.003906 329.214844 314.910156 327.585938 314.59375 324.855469 C 317.945312 323.070312 321.304688 321.292969 324.664062 319.515625 C 325.621094 319.007812 326.578125 318.496094 327.5625 317.972656 C 328.476562 317.492188 329.390625 317.007812 330.332031 316.511719 C 331.175781 316.066406 332.019531 315.617188 332.886719 315.15625 C 334.980469 314.175781 334.980469 314.175781 336.921875 314.175781 C 336.921875 313.535156 336.921875 312.894531 336.921875 312.234375 C 336.070312 311.972656 335.214844 311.707031 334.335938 311.4375 C 331.285156 310.359375 328.667969 309.09375 325.847656 307.519531 C 324.886719 306.996094 323.921875 306.472656 322.933594 305.933594 C 320.925781 304.832031 318.925781 303.722656 316.933594 302.605469 C 315.96875 302.085938 315.007812 301.5625 314.015625 301.027344 C 313.148438 300.546875 312.28125 300.066406 311.386719 299.570312 C 306.453125 297.820312 302.855469 299.558594 298.335938 301.695312 C 296.535156 302.597656 294.738281 303.507812 292.945312 304.421875 C 291.984375 304.90625 291.027344 305.386719 290.039062 305.886719 C 286.972656 307.429688 283.914062 308.980469 280.855469 310.535156 C 278.8125 311.566406 276.769531 312.597656 274.726562 313.628906 C 270.949219 315.53125 267.167969 317.445312 263.394531 319.359375 C 262.128906 319.996094 262.128906 319.996094 260.839844 320.648438 C 259.070312 321.546875 257.304688 322.449219 255.539062 323.355469 C 254.230469 324.023438 254.230469 324.023438 252.894531 324.703125 C 252.109375 325.105469 251.328125 325.507812 250.519531 325.921875 C 248.574219 326.796875 248.574219 326.796875 246.632812 326.796875 C 246.632812 327.4375 246.632812 328.078125 246.632812 328.738281 C 247.300781 328.832031 247.96875 328.921875 248.65625 329.015625 C 252.085938 329.859375 254.925781 331.375 257.984375 333.078125 C 259.296875 333.796875 260.613281 334.511719 261.925781 335.226562 C 262.617188 335.605469 263.3125 335.984375 264.023438 336.375 C 268.496094 338.804688 273.007812 341.164062 277.511719 343.535156 C 281.457031 345.617188 285.386719 347.722656 289.285156 349.886719 C 306.480469 360.664062 306.480469 360.664062 325.53125 362.867188 C 329.566406 361.246094 332.917969 359.058594 336.242188 356.277344 C 338.535156 354.4375 341.050781 353.246094 343.71875 352.039062 C 343.617188 350.839844 343.515625 349.636719 343.414062 348.398438 C 343.402344 344.976562 343.472656 344.535156 345.960938 341.90625 C 351.460938 338.710938 356.925781 338.953125 363.132812 339.417969 C 366.617188 340.703125 369.71875 342.132812 371.871094 345.246094 C 372.328125 348.882812 372.023438 349.875 369.929688 353.011719 C 370.589844 353.257812 371.25 353.503906 371.933594 353.757812 C 375.875 355.410156 379.617188 357.449219 383.355469 359.515625 C 385.859375 360.824219 387.84375 361.757812 390.695312 361.710938 C 394.5 360.3125 398.105469 358.65625 401.726562 356.835938 C 402.480469 356.488281 403.238281 356.140625 404.019531 355.78125 C 408.097656 353.78125 408.097656 353.78125 410.511719 350.121094 C 411.105469 346.308594 410.792969 344.429688 408.882812 341.058594 C 408.203125 340.195312 407.523438 339.335938 406.820312 338.449219 C 404.976562 332.910156 405.113281 327.644531 407.308594 322.246094 C 414.140625 312.140625 426.125 306.34375 437.796875 303.949219 C 443.195312 303.203125 448.648438 303.222656 454.089844 303.195312 C 455.117188 303.1875 456.140625 303.183594 457.199219 303.175781 C 471.859375 303.3125 486.183594 306.804688 497.109375 317.089844 C 501.503906 321.9375 503.429688 325.742188 503.226562 332.269531 C 502.324219 339.355469 498.121094 343.894531 492.777344 348.332031 C 480.667969 357.015625 466.929688 358.109375 452.511719 358.167969 C 451.371094 358.175781 450.234375 358.179688 449.058594 358.1875 C 443.296875 358.136719 438.570312 357.605469 433.035156 355.925781 C 419.121094 354.519531 408.679688 358.21875 397.113281 365.632812 C 399.519531 366.910156 401.925781 368.183594 404.332031 369.457031 C 405.117188 369.871094 405.902344 370.289062 406.710938 370.71875 C 411.679688 373.339844 416.675781 375.914062 421.699219 378.429688 C 424.625 379.898438 427.546875 381.375 430.46875 382.851562 C 431.9375 383.589844 433.40625 384.324219 434.878906 385.050781 C 436.972656 386.089844 439.058594 387.140625 441.140625 388.199219 C 441.78125 388.507812 442.417969 388.820312 443.074219 389.136719 C 447.398438 391.359375 447.398438 391.359375 448.484375 394.015625 C 448.511719 394.582031 448.539062 395.148438 448.566406 395.730469 C 441.992188 400.050781 435.101562 403.679688 428.089844 407.226562 C 426.769531 407.898438 425.449219 408.578125 424.132812 409.265625 C 422.210938 410.269531 420.277344 411.25 418.34375 412.226562 C 416.632812 413.105469 416.632812 413.105469 414.886719 413.996094 C 410.207031 415.671875 407.1875 414.746094 402.671875 412.828125 C 401.5 412.25 400.332031 411.664062 399.164062 411.070312 C 398.515625 410.746094 397.867188 410.425781 397.199219 410.09375 C 395.03125 409.015625 392.871094 407.925781 390.710938 406.835938 C 389.15625 406.058594 387.601562 405.28125 386.046875 404.503906 C 381.828125 402.398438 377.613281 400.28125 373.398438 398.164062 C 368.980469 395.945312 364.558594 393.734375 360.140625 391.523438 C 352.710938 387.804688 345.289062 384.082031 337.867188 380.355469 C 328.355469 375.582031 318.84375 370.816406 309.328125 366.054688 C 301.132812 361.953125 292.9375 357.84375 284.742188 353.738281 C 282.988281 352.859375 281.234375 351.980469 279.480469 351.101562 C 274.46875 348.59375 269.464844 346.082031 264.457031 343.566406 C 262.945312 342.808594 261.429688 342.050781 259.917969 341.289062 C 252.496094 337.574219 245.09375 333.851562 237.898438 329.710938 C 238.210938 327.398438 238.210938 327.398438 238.867188 324.855469 C 241.007812 323.394531 242.886719 322.335938 245.210938 321.257812 C 246.1875 320.777344 246.1875 320.777344 247.1875 320.289062 C 249.28125 319.265625 251.382812 318.269531 253.492188 317.273438 C 254.851562 316.613281 256.214844 315.953125 257.574219 315.289062 C 260.3125 313.960938 263.050781 312.636719 265.796875 311.320312 C 274.277344 307.238281 282.703125 303.035156 291.027344 298.640625 C 292.226562 298.011719 292.226562 298.011719 293.449219 297.375 C 295.050781 296.539062 296.640625 295.691406 298.230469 294.832031 C 299.015625 294.425781 299.804688 294.019531 300.613281 293.601562 C 301.296875 293.242188 301.980469 292.878906 302.6875 292.503906 C 308.253906 290.839844 313.023438 293.757812 317.835938 296.34375 C 319.199219 297.054688 320.566406 297.765625 321.933594 298.472656 C 324.0625 299.589844 326.1875 300.710938 328.308594 301.839844 C 330.371094 302.9375 332.445312 304.011719 334.519531 305.082031 C 335.148438 305.425781 335.773438 305.765625 336.417969 306.117188 C 340.875 308.394531 343.746094 308.59375 348.570312 307.378906 C 350.828125 306.585938 350.828125 306.585938 352.835938 305.503906 C 353.59375 305.117188 354.351562 304.734375 355.136719 304.335938 C 355.933594 303.917969 356.730469 303.503906 357.550781 303.074219 C 358.820312 302.421875 358.820312 302.421875 360.117188 301.761719 C 366.636719 298.414062 373.117188 294.992188 379.589844 291.558594 C 387.625 287.304688 395.761719 283.257812 403.910156 279.226562 C 399.105469 278.90625 394.296875 278.585938 389.347656 278.253906 C 389.027344 276.972656 388.707031 275.691406 388.375 274.371094 C 390.203125 272.542969 393.347656 273.273438 395.777344 273.269531 Z M 395.777344 273.269531 " fill-opacity="1" fill-rule="nonzero"/><path fill="#0e0e0e" d="M 490.3125 318.058594 C 494.382812 321.691406 496.988281 324.980469 497.351562 330.5 C 497.230469 336.078125 494.835938 338.976562 490.980469 342.816406 C 481.128906 351.160156 466.4375 353.363281 453.90625 353.253906 C 453.046875 353.261719 452.1875 353.269531 451.300781 353.277344 C 445.109375 353.257812 438.664062 352.914062 433.035156 350.097656 C 432.425781 347.609375 432.425781 347.609375 432.0625 345.246094 C 428.183594 344.007812 424.785156 343.230469 420.714844 343 C 417.257812 342.679688 416.734375 342.53125 414.101562 339.964844 C 411.3125 335.195312 410.714844 331.335938 411.675781 325.828125 C 416.210938 317.597656 424.921875 313.71875 433.488281 310.949219 C 452.890625 305.769531 473.0625 307.144531 490.3125 318.058594 Z M 490.3125 318.058594 " fill-opacity="1" fill-rule="nonzero"/><path fill="#0e0e0e" d="M 380.035156 362.78125 C 381.785156 363.710938 383.53125 364.640625 385.28125 365.574219 C 387.019531 366.46875 388.753906 367.367188 390.492188 368.257812 C 395.632812 370.910156 400.742188 373.605469 405.851562 376.3125 C 408.371094 377.644531 410.894531 378.972656 413.414062 380.300781 C 414.945312 381.105469 416.472656 381.914062 418 382.722656 C 425.214844 386.53125 432.515625 390.175781 439.828125 393.789062 C 436.203125 397.929688 431.070312 399.929688 426.234375 402.367188 C 424.488281 403.25 422.753906 404.15625 421.019531 405.0625 C 419.910156 405.621094 418.804688 406.183594 417.664062 406.757812 C 416.65625 407.273438 415.648438 407.789062 414.609375 408.320312 C 410.378906 409.765625 407.820312 409.25 403.777344 407.40625 C 401.210938 406.113281 398.6875 404.753906 396.164062 403.382812 C 387.195312 398.601562 378.164062 393.984375 369.058594 389.472656 C 367.816406 388.855469 366.574219 388.238281 365.335938 387.625 C 360.265625 385.105469 355.191406 382.589844 350.117188 380.082031 C 346.953125 378.519531 343.792969 376.949219 340.636719 375.375 C 339.445312 374.785156 338.253906 374.195312 337.0625 373.609375 C 335.417969 372.800781 333.777344 371.984375 332.136719 371.164062 C 331.207031 370.707031 330.277344 370.246094 329.316406 369.769531 C 327.214844 368.546875 327.214844 368.546875 326.242188 366.605469 C 329.769531 364.582031 333.339844 362.644531 336.921875 360.71875 C 337.902344 360.152344 338.882812 359.589844 339.894531 359.007812 C 354.625 351.230469 366.261719 355.628906 380.035156 362.78125 Z M 380.035156 362.78125 " fill-opacity="1" fill-rule="nonzero"/><path fill="#f0f0ef" d="M 421.273438 244.585938 C 422.246094 245.070312 422.246094 245.070312 423.242188 245.566406 C 425.40625 246.644531 427.566406 247.726562 429.726562 248.8125 C 431.28125 249.589844 432.835938 250.367188 434.390625 251.144531 C 438.609375 253.25 442.828125 255.363281 447.042969 257.472656 C 451.460938 259.6875 455.878906 261.898438 460.300781 264.105469 C 467.726562 267.820312 475.148438 271.535156 482.574219 275.253906 C 491.140625 279.546875 499.710938 283.835938 508.28125 288.121094 C 517.421875 292.691406 526.558594 297.261719 535.695312 301.835938 C 538.320312 303.148438 540.945312 304.460938 543.574219 305.777344 C 547.710938 307.84375 551.847656 309.914062 555.980469 311.988281 C 557.496094 312.746094 559.007812 313.503906 560.523438 314.261719 C 567.945312 317.972656 575.347656 321.683594 582.542969 325.828125 C 582.320312 327.609375 582.320312 327.609375 581.570312 329.710938 C 579.753906 331.050781 579.753906 331.050781 577.351562 332.257812 C 576.460938 332.714844 575.566406 333.171875 574.648438 333.644531 C 573.671875 334.125 572.699219 334.605469 571.695312 335.101562 C 570.691406 335.613281 569.683594 336.121094 568.648438 336.648438 C 565.519531 338.230469 562.382812 339.796875 559.242188 341.363281 C 557.429688 342.277344 555.617188 343.191406 553.804688 344.109375 C 549.351562 346.355469 544.894531 348.582031 540.429688 350.804688 C 537.53125 352.246094 534.632812 353.695312 531.734375 355.140625 C 525.613281 358.195312 519.492188 361.246094 513.371094 364.296875 C 506.199219 367.871094 499.027344 371.449219 491.855469 375.027344 C 489.003906 376.449219 486.152344 377.871094 483.300781 379.292969 C 481.566406 380.15625 479.835938 381.019531 478.101562 381.886719 C 476.917969 382.476562 476.917969 382.476562 475.707031 383.074219 C 474.984375 383.4375 474.261719 383.796875 473.515625 384.171875 C 472.890625 384.484375 472.261719 384.796875 471.617188 385.117188 C 469.675781 386.121094 469.675781 386.121094 467.011719 387.964844 C 464.402344 387.597656 464.402344 387.597656 462.160156 386.992188 C 462.160156 385.710938 462.160156 384.429688 462.160156 383.109375 C 463.121094 382.628906 464.082031 382.152344 465.074219 381.660156 C 468.742188 379.832031 472.410156 378.003906 476.078125 376.175781 C 477.648438 375.394531 479.214844 374.613281 480.785156 373.832031 C 489.128906 369.683594 497.4375 365.484375 505.664062 361.113281 C 517.96875 354.585938 530.457031 348.417969 542.925781 342.207031 C 546.199219 340.574219 549.472656 338.9375 552.746094 337.304688 C 559.117188 334.125 565.492188 330.945312 571.863281 327.769531 C 551.539062 316.972656 530.988281 306.617188 510.433594 296.277344 C 504.175781 293.128906 497.921875 289.972656 491.679688 286.796875 C 486.175781 284 480.671875 281.21875 475.152344 278.449219 C 472.25 276.992188 469.347656 275.527344 466.457031 274.050781 C 463.246094 272.410156 460.023438 270.796875 456.796875 269.191406 C 455.847656 268.699219 454.898438 268.207031 453.921875 267.703125 C 448.816406 265.101562 448.816406 265.101562 443.238281 265.269531 C 442.03125 265.929688 442.03125 265.929688 440.800781 266.605469 C 439.957031 267.027344 439.113281 267.453125 438.246094 267.890625 C 436.625 268.777344 435.007812 269.667969 433.390625 270.558594 C 430.8125 271.566406 429.753906 271.457031 427.210938 270.488281 C 427.425781 268.714844 427.425781 268.714844 428.179688 266.605469 C 430.117188 265.164062 430.117188 265.164062 432.488281 263.933594 C 433.269531 263.519531 434.046875 263.101562 434.851562 262.675781 C 436.917969 261.75 436.917969 261.75 438.859375 261.75 C 438.859375 261.109375 438.859375 260.46875 438.859375 259.808594 C 438.117188 259.601562 437.378906 259.394531 436.613281 259.183594 C 430.632812 256.984375 425.097656 253.824219 419.496094 250.804688 C 418.578125 250.328125 417.660156 249.851562 416.710938 249.359375 C 415.886719 248.917969 415.058594 248.480469 414.207031 248.027344 C 409.789062 246.5625 406.472656 247.882812 402.308594 249.71875 C 400.972656 250.390625 399.640625 251.070312 398.316406 251.757812 C 397.21875 252.316406 397.21875 252.316406 396.097656 252.882812 C 394.515625 253.6875 392.9375 254.492188 391.359375 255.300781 C 388.863281 256.582031 386.359375 257.851562 383.855469 259.117188 C 376.738281 262.722656 369.628906 266.339844 362.523438 269.972656 C 358.175781 272.191406 353.816406 274.402344 349.457031 276.601562 C 347.796875 277.445312 346.140625 278.289062 344.484375 279.140625 C 342.175781 280.332031 339.855469 281.503906 337.535156 282.671875 C 336.855469 283.027344 336.171875 283.382812 335.472656 283.75 C 332.507812 285.222656 330.570312 286.0625 327.234375 285.746094 C 326.585938 285.515625 325.941406 285.285156 325.273438 285.050781 C 325.570312 283.230469 325.570312 283.230469 326.242188 281.167969 C 328.636719 279.625 330.929688 278.367188 333.472656 277.117188 C 334.273438 276.710938 335.074219 276.304688 335.898438 275.886719 C 337.753906 274.945312 339.613281 274.007812 341.476562 273.074219 C 345.035156 271.285156 348.578125 269.464844 352.121094 267.636719 C 358.386719 264.410156 364.671875 261.210938 370.960938 258.03125 C 374.632812 256.171875 378.300781 254.308594 381.960938 252.429688 C 385.554688 250.582031 389.160156 248.753906 392.769531 246.9375 C 394.132812 246.25 395.488281 245.554688 396.84375 244.851562 C 398.726562 243.878906 400.617188 242.929688 402.511719 241.988281 C 403.582031 241.441406 404.652344 240.898438 405.753906 240.335938 C 411.316406 238.640625 416.3125 242.082031 421.273438 244.585938 Z M 421.273438 244.585938 " fill-opacity="1" fill-rule="nonzero"/><path fill="#f3f3f3" d="M 343.71875 494.757812 C 349.707031 495.222656 354.417969 497.960938 359.648438 500.683594 C 360.625 501.183594 361.597656 501.683594 362.601562 502.195312 C 365.714844 503.796875 368.824219 505.40625 371.933594 507.015625 C 373.996094 508.078125 376.0625 509.136719 378.128906 510.199219 C 380.140625 511.234375 382.152344 512.269531 384.164062 513.304688 C 385.136719 513.804688 386.113281 514.308594 387.117188 514.824219 C 391.195312 516.929688 395.253906 519.046875 399.234375 521.332031 C 400.886719 522.277344 400.886719 522.277344 402.570312 523.242188 C 403.464844 523.773438 404.359375 524.308594 405.28125 524.855469 C 409.25 526.390625 412.171875 525.476562 415.984375 523.839844 C 416.734375 523.429688 417.488281 523.023438 418.261719 522.601562 C 419.097656 522.164062 419.933594 521.722656 420.792969 521.273438 C 422.527344 520.339844 424.261719 519.40625 425.988281 518.464844 C 426.824219 518.027344 427.65625 517.59375 428.515625 517.140625 C 429.269531 516.738281 430.019531 516.332031 430.792969 515.914062 C 433.523438 514.980469 435.148438 515.339844 437.886719 516.117188 C 437.742188 517.863281 437.742188 517.863281 436.917969 520 C 433.609375 522.289062 429.992188 523.972656 426.378906 525.742188 C 424.613281 526.609375 422.863281 527.507812 421.113281 528.410156 C 419.441406 529.242188 419.441406 529.242188 417.730469 530.09375 C 416.710938 530.601562 415.691406 531.113281 414.640625 531.636719 C 410.503906 533.011719 407.6875 532.375 403.699219 530.804688 C 402.703125 530.292969 402.703125 530.292969 401.683594 529.773438 C 400.921875 529.390625 400.160156 529.003906 399.375 528.609375 C 398.570312 528.191406 397.761719 527.773438 396.929688 527.34375 C 396.074219 526.90625 395.21875 526.472656 394.339844 526.023438 C 387.199219 522.375 380.105469 518.644531 373.023438 514.894531 C 366.933594 511.667969 360.816406 508.496094 354.699219 505.316406 C 353.070312 504.472656 353.070312 504.472656 351.410156 503.605469 C 348.847656 502.277344 346.28125 500.945312 343.71875 499.613281 C 343.71875 498.011719 343.71875 496.410156 343.71875 494.757812 Z M 343.71875 494.757812 " fill-opacity="1" fill-rule="nonzero"/><path fill="#f2f2f1" d="M 445.65625 451.070312 C 445.519531 452.808594 445.519531 452.808594 444.683594 454.953125 C 442.277344 456.582031 442.277344 456.582031 439.09375 458.167969 C 438.53125 458.457031 437.964844 458.742188 437.382812 459.039062 C 435.578125 459.957031 433.757812 460.851562 431.941406 461.75 C 430.152344 462.648438 428.363281 463.550781 426.574219 464.453125 C 424.871094 465.3125 423.164062 466.160156 421.457031 467.007812 C 419.0625 468.242188 416.808594 469.539062 414.535156 470.972656 C 411.148438 472.699219 410.378906 472.480469 406.820312 471.457031 C 404.984375 470.621094 403.171875 469.722656 401.386719 468.78125 C 400.371094 468.253906 399.351562 467.726562 398.300781 467.183594 C 396.167969 466.066406 394.039062 464.941406 391.910156 463.816406 C 390.890625 463.292969 389.875 462.765625 388.828125 462.226562 C 387.902344 461.738281 386.976562 461.253906 386.023438 460.75 C 383.257812 459.707031 382.34375 459.773438 379.636719 460.777344 C 377.699219 461.113281 375.757812 461.441406 373.8125 461.75 C 373.492188 460.148438 373.171875 458.546875 372.84375 456.894531 C 374.003906 456.207031 375.179688 455.546875 376.363281 454.890625 C 377.015625 454.519531 377.667969 454.148438 378.339844 453.765625 C 382.1875 452.484375 385.464844 453.542969 389.082031 455.175781 C 389.964844 455.667969 390.84375 456.15625 391.75 456.660156 C 392.722656 457.1875 393.691406 457.714844 394.695312 458.257812 C 396.71875 459.375 398.746094 460.5 400.769531 461.625 C 401.738281 462.148438 402.707031 462.671875 403.703125 463.214844 C 404.582031 463.699219 405.460938 464.1875 406.363281 464.6875 C 409.164062 465.792969 409.90625 465.804688 412.648438 464.660156 C 414.800781 463.59375 416.90625 462.496094 419.015625 461.347656 C 420.261719 460.683594 421.511719 460.015625 422.757812 459.351562 C 424.714844 458.304688 426.671875 457.253906 428.621094 456.195312 C 430.507812 455.167969 432.40625 454.160156 434.304688 453.15625 C 434.882812 452.835938 435.460938 452.515625 436.058594 452.183594 C 439.640625 450.308594 441.785156 449.773438 445.65625 451.070312 Z M 445.65625 451.070312 " fill-opacity="1" fill-rule="nonzero"/><path fill="#efefef" d="M 514.585938 418.058594 C 516.988281 418.539062 516.988281 418.539062 519.4375 419.03125 C 519.4375 426.398438 519.4375 433.769531 519.4375 441.359375 C 520.71875 440.71875 522 440.078125 523.320312 439.417969 C 525.507812 439.785156 525.507812 439.785156 527.203125 440.390625 C 527.191406 442.546875 527.191406 442.546875 526.234375 445.246094 C 523.917969 447.070312 521.316406 448.269531 518.664062 449.542969 C 517.519531 450.113281 517.519531 450.113281 516.351562 450.695312 C 514.738281 451.496094 513.117188 452.292969 511.496094 453.078125 C 509.015625 454.277344 506.550781 455.507812 504.085938 456.746094 C 502.515625 457.519531 500.941406 458.296875 499.371094 459.066406 C 498.632812 459.433594 497.898438 459.800781 497.136719 460.179688 C 493.4375 461.957031 490.636719 463.21875 486.429688 462.71875 C 486.5625 460.496094 486.5625 460.496094 487.402344 457.867188 C 489.828125 456.15625 489.828125 456.15625 493.015625 454.628906 C 494.152344 454.078125 495.289062 453.523438 496.457031 452.953125 C 497.667969 452.386719 498.875 451.816406 500.082031 451.25 C 501.292969 450.667969 502.507812 450.082031 503.71875 449.492188 C 506.683594 448.0625 509.660156 446.644531 512.640625 445.246094 C 512.667969 444.457031 512.691406 443.667969 512.714844 442.855469 C 512.828125 439.300781 512.949219 435.75 513.066406 432.199219 C 513.105469 430.957031 513.144531 429.714844 513.183594 428.433594 C 513.222656 427.253906 513.265625 426.074219 513.304688 424.859375 C 513.339844 423.765625 513.378906 422.671875 513.414062 421.546875 C 513.613281 419.03125 513.613281 419.03125 514.585938 418.058594 Z M 514.585938 418.058594 " fill-opacity="1" fill-rule="nonzero"/><path fill="#f5f5f5" d="M 311.679688 449.128906 C 316.222656 449.667969 319.570312 450.929688 323.601562 453.066406 C 324.164062 453.359375 324.722656 453.652344 325.300781 453.953125 C 327.074219 454.886719 328.84375 455.828125 330.613281 456.773438 C 331.796875 457.398438 332.984375 458.027344 334.171875 458.652344 C 336.363281 459.804688 338.554688 460.964844 340.742188 462.128906 C 347.253906 465.625 347.253906 465.625 354.273438 467.757812 C 355.414062 467.988281 355.414062 467.988281 356.574219 468.222656 C 357.417969 468.382812 357.417969 468.382812 358.28125 468.546875 C 358.886719 470.851562 358.886719 470.851562 359.25 473.398438 C 356.71875 475.929688 354.90625 475.574219 351.457031 475.597656 C 349.542969 475.339844 349.542969 475.339844 346.628906 473.398438 C 346.628906 472.757812 346.628906 472.117188 346.628906 471.457031 C 345.96875 471.207031 345.308594 470.953125 344.625 470.695312 C 341.34375 469.339844 338.175781 467.792969 335 466.210938 C 334.046875 465.734375 334.046875 465.734375 333.074219 465.253906 C 331.742188 464.585938 330.40625 463.921875 329.074219 463.253906 C 327.03125 462.234375 324.984375 461.21875 322.9375 460.207031 C 321.636719 459.558594 320.339844 458.910156 319.039062 458.261719 C 318.429688 457.957031 317.816406 457.65625 317.1875 457.34375 C 314.679688 456.082031 312.707031 455.011719 310.710938 453.011719 C 311.074219 450.949219 311.074219 450.949219 311.679688 449.128906 Z M 311.679688 449.128906 " fill-opacity="1" fill-rule="nonzero"/><path fill="#f2f3f2" d="M 518.40625 470.003906 C 523.855469 470.160156 523.855469 470.160156 526.234375 471.945312 C 526.554688 472.425781 526.875 472.90625 527.203125 473.398438 C 525.382812 477.160156 525.382812 477.160156 524.292969 478.253906 C 523.023438 478.519531 521.746094 478.757812 520.46875 478.980469 C 515.839844 479.9375 512.125 481.816406 508.042969 484.152344 C 505.519531 485.183594 504.46875 485.027344 501.964844 484.078125 C 502.121094 482.320312 502.121094 482.320312 502.933594 480.195312 C 505.261719 478.679688 505.261719 478.679688 508.152344 477.28125 C 512.160156 475.394531 512.160156 475.394531 515.167969 472.273438 C 516.527344 470.488281 516.527344 470.488281 518.40625 470.003906 Z M 518.40625 470.003906 " fill-opacity="1" fill-rule="nonzero"/><path fill="#f3f3f3" d="M 342.199219 536.75 C 342.703125 536.988281 343.203125 537.230469 343.71875 537.476562 C 343.71875 539.660156 343.71875 539.660156 342.746094 542.332031 C 340.867188 543.523438 338.945312 544.378906 336.902344 545.261719 C 334.78125 546.164062 334.78125 546.164062 333.039062 548.398438 C 330.78125 550.375 330.011719 550.390625 327.09375 550.460938 C 323.332031 550.097656 323.332031 550.097656 321.386719 548.15625 C 321.929688 543.734375 321.929688 543.734375 323.332031 542.332031 C 324.820312 542.042969 326.320312 541.785156 327.820312 541.542969 C 331.25 540.90625 333.847656 540.128906 336.800781 538.265625 C 339.835938 536.507812 339.835938 536.507812 342.199219 536.75 Z M 342.199219 536.75 " fill-opacity="1" fill-rule="nonzero"/><path fill="#f2f2f2" d="M 246.632812 497.671875 C 248.574219 499.613281 248.574219 499.613281 248.800781 501.46875 C 248.683594 507.273438 248.683594 507.273438 247.605469 508.351562 C 243.167969 508.015625 240.242188 507.519531 236.925781 504.46875 C 237.285156 501.878906 237.722656 500.757812 239.597656 498.886719 C 242.195312 497.441406 243.703125 497.285156 246.632812 497.671875 Z M 246.632812 497.671875 " fill-opacity="1" fill-rule="nonzero"/><path fill="#f5f5f5" d="M 572.835938 497.671875 C 576.191406 497.855469 578.726562 498.050781 581.570312 499.917969 C 582.542969 501.554688 582.542969 501.554688 582.542969 503.496094 C 581.136719 506.308594 579.574219 507.117188 576.71875 508.351562 C 573.988281 508.046875 573.988281 508.046875 571.863281 507.378906 C 570.914062 501.5 570.914062 501.5 570.890625 499.613281 C 571.53125 498.972656 572.175781 498.332031 572.835938 497.671875 Z M 572.835938 497.671875 " fill-opacity="1" fill-rule="nonzero"/><path fill="#ebecec" d="M 410.21875 582.925781 C 410.992188 582.914062 411.761719 582.898438 412.554688 582.882812 C 414.589844 583.109375 414.589844 583.109375 416.53125 585.050781 C 416.359375 587.6875 415.722656 588.753906 413.921875 590.691406 C 410.859375 592.265625 409.109375 591.796875 405.851562 590.875 C 403.910156 588.933594 403.910156 588.933594 403.789062 586.386719 C 403.828125 585.625 403.867188 584.863281 403.910156 584.078125 C 406.195312 582.9375 407.675781 582.945312 410.21875 582.925781 Z M 410.21875 582.925781 " fill-opacity="1" fill-rule="nonzero"/><path fill="#f1f2f2" d="M 576.535156 409.019531 C 579.628906 409.324219 579.628906 409.324219 581.996094 411.019531 C 583.511719 413.207031 583.511719 413.207031 583.453125 415.269531 C 582.542969 417.089844 582.542969 417.089844 579.628906 419.03125 C 577.140625 419.273438 577.140625 419.273438 574.777344 419.03125 C 572.835938 417.089844 572.835938 417.089844 572.652344 413.628906 C 572.882812 409.425781 572.882812 409.425781 576.535156 409.019531 Z M 576.535156 409.019531 " fill-opacity="1" fill-rule="nonzero"/><path fill="#e7e7e7" d="M 486.976562 425.097656 C 490.3125 425.828125 490.3125 425.828125 492.253906 427.769531 C 492.074219 429.710938 492.074219 429.710938 491.285156 431.652344 C 488.371094 433.59375 488.371094 433.59375 484.914062 433.351562 C 481.574219 432.625 481.574219 432.625 479.632812 430.679688 C 479.816406 428.738281 479.816406 428.738281 480.605469 426.796875 C 483.515625 424.855469 483.515625 424.855469 486.976562 425.097656 Z M 486.976562 425.097656 " fill-opacity="1" fill-rule="nonzero"/><path fill="#f4f5f4" d="M 245.664062 409.324219 C 246.632812 410.292969 246.632812 410.292969 246.761719 412.054688 C 246.761719 412.753906 246.757812 413.453125 246.753906 414.175781 C 246.757812 414.878906 246.761719 415.578125 246.761719 416.300781 C 246.632812 418.058594 246.632812 418.058594 245.664062 419.03125 C 241.75 419.285156 240.265625 419.316406 236.925781 417.089844 C 236.503906 414.339844 236.539062 412.855469 238.019531 410.476562 C 240.617188 408.828125 242.65625 409.0625 245.664062 409.324219 Z M 245.664062 409.324219 " fill-opacity="1" fill-rule="nonzero"/><path fill="#ededed" d="M 411.3125 436.808594 C 414.589844 437.476562 414.589844 437.476562 415.558594 438.449219 C 415.597656 440.066406 415.601562 441.683594 415.558594 443.304688 C 413.394531 444.382812 412.132812 444.433594 409.734375 444.457031 C 408.714844 444.476562 408.714844 444.476562 407.671875 444.496094 C 405.851562 444.273438 405.851562 444.273438 403.910156 442.332031 C 404.089844 440.390625 404.089844 440.390625 404.878906 438.449219 C 407.792969 436.507812 407.792969 436.507812 411.3125 436.808594 Z M 411.3125 436.808594 " fill-opacity="1" fill-rule="nonzero"/><path fill="#f3f3f2" d="M 344.6875 428.738281 C 345.328125 429.378906 345.96875 430.019531 346.628906 430.679688 C 346.386719 433.167969 346.386719 433.167969 345.660156 435.535156 C 342.941406 436.894531 340.898438 436.75 337.894531 436.507812 C 336.011719 435.292969 336.011719 435.292969 334.980469 433.59375 C 335.164062 431.53125 335.164062 431.53125 335.949219 429.710938 C 338.875 428.246094 341.46875 428.566406 344.6875 428.738281 Z M 344.6875 428.738281 " fill-opacity="1" fill-rule="nonzero"/><path fill="#f0f0f0" d="M 411.761719 495.507812 C 413.617188 495.730469 413.617188 495.730469 415.558594 497.671875 C 415.203125 500.519531 414.71875 501.421875 412.648438 503.496094 C 409.539062 503.828125 407.605469 504.003906 404.941406 502.28125 C 403.910156 500.585938 403.910156 500.585938 404.152344 498.519531 C 405.667969 494.730469 407.96875 495.582031 411.761719 495.507812 Z M 411.761719 495.507812 " fill-opacity="1" fill-rule="nonzero"/><path fill="#f0f0f0" d="M 382.550781 542.332031 C 388.984375 543.058594 388.984375 543.058594 392.257812 545.242188 C 391.9375 546.527344 391.617188 547.808594 391.289062 549.128906 C 387.664062 548.644531 385.644531 548.277344 382.550781 546.214844 C 382.550781 544.933594 382.550781 543.652344 382.550781 542.332031 Z M 382.550781 542.332031 " fill-opacity="1" fill-rule="nonzero"/><path fill="#f5f5f5" d="M 458.277344 413.207031 C 461.550781 413.738281 463.210938 414.230469 466.042969 416.117188 C 466.042969 417.398438 466.042969 418.679688 466.042969 420 C 459.488281 419.273438 459.488281 419.273438 457.304688 417.089844 C 457.667969 415.027344 457.667969 415.027344 458.277344 413.207031 Z M 458.277344 413.207031 " fill-opacity="1" fill-rule="nonzero"/><path fill="#e8e8e8" d="M 439.828125 425.828125 C 439.828125 427.109375 439.828125 428.390625 439.828125 429.710938 C 436.917969 431.652344 436.917969 431.652344 434.792969 431.289062 C 434.214844 431.089844 433.632812 430.886719 433.035156 430.679688 C 433.398438 428.316406 433.398438 428.316406 434.003906 425.828125 C 436.421875 424.617188 437.316406 425.074219 439.828125 425.828125 Z M 439.828125 425.828125 " fill-opacity="1" fill-rule="nonzero"/><path fill="#e0e1e0" d="M 261.195312 399.613281 C 262.824219 399.890625 264.441406 400.214844 266.050781 400.585938 C 265.730469 402.1875 265.410156 403.789062 265.082031 405.4375 C 263.261719 406.046875 263.261719 406.046875 261.195312 406.410156 C 260.554688 405.769531 259.914062 405.128906 259.253906 404.46875 C 259.773438 401.035156 259.773438 401.035156 261.195312 399.613281 Z M 261.195312 399.613281 " fill-opacity="1" fill-rule="nonzero"/><path fill="#e3e3e3" d="M 280.613281 389.90625 C 281.894531 389.90625 283.175781 389.90625 284.496094 389.90625 C 285.105469 392.210938 285.105469 392.210938 285.46875 394.757812 C 284.828125 395.398438 284.1875 396.039062 283.527344 396.699219 C 281.464844 396.335938 281.464844 396.335938 279.644531 395.730469 C 279.035156 393.910156 279.035156 393.910156 278.671875 391.847656 C 279.3125 391.207031 279.953125 390.566406 280.613281 389.90625 Z M 280.613281 389.90625 " fill-opacity="1" fill-rule="nonzero"/><path fill="#e0e1e0" d="M 436.917969 570.488281 C 438.980469 570.851562 438.980469 570.851562 440.800781 571.457031 C 441.40625 573.277344 441.40625 573.277344 441.773438 575.339844 C 441.132812 575.980469 440.488281 576.621094 439.828125 577.28125 C 437.765625 576.917969 437.765625 576.917969 435.945312 576.3125 C 435.339844 574.492188 435.339844 574.492188 434.976562 572.429688 C 435.617188 571.789062 436.257812 571.148438 436.917969 570.488281 Z M 436.917969 570.488281 " fill-opacity="1" fill-rule="nonzero"/><path fill="#dddddd" d="M 464.101562 556.894531 C 466.164062 557.257812 466.164062 557.257812 467.984375 557.867188 C 468.589844 559.6875 468.589844 559.6875 468.953125 561.75 C 468.3125 562.390625 467.671875 563.03125 467.011719 563.691406 C 464.949219 563.328125 464.949219 563.328125 463.128906 562.71875 C 462.523438 560.898438 462.523438 560.898438 462.160156 558.835938 C 462.800781 558.195312 463.441406 557.554688 464.101562 556.894531 Z M 464.101562 556.894531 " fill-opacity="1" fill-rule="nonzero"/><path fill="#dddddd" d="M 297.117188 470.488281 C 299.179688 470.851562 299.179688 470.851562 301 471.457031 C 301.609375 473.277344 301.609375 473.277344 301.972656 475.339844 C 301.332031 475.980469 300.691406 476.621094 300.03125 477.285156 C 297.96875 476.917969 297.96875 476.917969 296.148438 476.3125 C 295.539062 474.492188 295.539062 474.492188 295.175781 472.429688 C 295.816406 471.789062 296.457031 471.148438 297.117188 470.488281 Z M 297.117188 470.488281 " fill-opacity="1" fill-rule="nonzero"/><path fill="#e4e5e3" d="M 311.863281 413.570312 C 312.441406 413.769531 313.023438 413.96875 313.621094 414.175781 C 313.621094 415.457031 313.621094 416.738281 313.621094 418.058594 C 312.652344 419.03125 312.652344 419.03125 310.164062 419.089844 C 308.992188 419.0625 308.992188 419.0625 307.796875 419.03125 C 307.476562 417.75 307.15625 416.46875 306.824219 415.148438 C 309.738281 413.207031 309.738281 413.207031 311.863281 413.570312 Z M 311.863281 413.570312 " fill-opacity="1" fill-rule="nonzero"/><path fill="#e2e3e2" d="M 555.359375 399.613281 C 557.421875 399.976562 557.421875 399.976562 559.242188 400.585938 C 559.847656 402.40625 559.847656 402.40625 560.214844 404.46875 C 559.574219 405.109375 558.933594 405.75 558.273438 406.410156 C 556.207031 406.046875 556.207031 406.046875 554.386719 405.4375 C 553.78125 403.617188 553.78125 403.617188 553.417969 401.554688 C 554.058594 400.914062 554.699219 400.273438 555.359375 399.613281 Z M 555.359375 399.613281 " fill-opacity="1" fill-rule="nonzero"/><path fill="#e2e3e2" d="M 535.941406 389.90625 C 538.003906 390.269531 538.003906 390.269531 539.824219 390.875 C 540.433594 392.695312 540.433594 392.695312 540.796875 394.757812 C 540.15625 395.398438 539.515625 396.039062 538.855469 396.699219 C 536.792969 396.335938 536.792969 396.335938 534.972656 395.730469 C 534.363281 393.910156 534.363281 393.910156 534 391.847656 C 534.640625 391.207031 535.28125 390.566406 535.941406 389.90625 Z M 535.941406 389.90625 " fill-opacity="1" fill-rule="nonzero"/><path fill="#e2e2e1" d="M 519.4375 529.710938 C 521.988281 530.074219 521.988281 530.074219 524.292969 530.679688 C 523.972656 532.28125 523.652344 533.886719 523.320312 535.535156 C 521.71875 535.535156 520.117188 535.535156 518.46875 535.535156 C 517.859375 533.714844 517.859375 533.714844 517.496094 531.652344 C 518.136719 531.011719 518.777344 530.371094 519.4375 529.710938 Z M 519.4375 529.710938 " fill-opacity="1" fill-rule="nonzero"/><path fill="#e3e3e3" d="M 445.65625 478.253906 C 447.257812 478.253906 448.859375 478.253906 450.507812 478.253906 C 451.117188 480.074219 451.117188 480.074219 451.480469 482.136719 C 450.839844 482.777344 450.199219 483.417969 449.539062 484.078125 C 446.988281 483.714844 446.988281 483.714844 444.683594 483.109375 C 445.003906 481.507812 445.324219 479.90625 445.65625 478.253906 Z M 445.65625 478.253906 " fill-opacity="1" fill-rule="nonzero"/><path fill="#e4e5e5" d="M 464.101562 469.515625 C 465.703125 469.515625 467.304688 469.515625 468.953125 469.515625 C 469.5625 471.335938 469.5625 471.335938 469.925781 473.398438 C 469.285156 474.039062 468.644531 474.679688 467.984375 475.339844 C 465.4375 474.976562 465.4375 474.976562 463.128906 474.371094 C 463.449219 472.769531 463.769531 471.167969 464.101562 469.515625 Z M 464.101562 469.515625 " fill-opacity="1" fill-rule="nonzero"/><path fill="#e6e6e6" d="M 542.3125 430.621094 C 543.484375 430.652344 543.484375 430.652344 544.679688 430.679688 C 545.773438 434.320312 545.773438 434.320312 544.679688 436.507812 C 543.078125 436.507812 541.476562 436.507812 539.824219 436.507812 C 539.453125 434.898438 539.132812 433.277344 538.855469 431.652344 C 539.824219 430.679688 539.824219 430.679688 542.3125 430.621094 Z M 542.3125 430.621094 " fill-opacity="1" fill-rule="nonzero"/><path fill="#e5e5e5" d="M 352.457031 556.894531 C 354.457031 557.320312 354.457031 557.320312 356.339844 557.867188 C 356.660156 559.46875 356.980469 561.070312 357.308594 562.71875 C 353.667969 563.8125 353.667969 563.8125 351.484375 562.71875 C 351.441406 561.101562 351.445312 559.484375 351.484375 557.867188 C 351.804688 557.546875 352.125 557.226562 352.457031 556.894531 Z M 352.457031 556.894531 " fill-opacity="1" fill-rule="nonzero"/><path fill="#e3e3e3" d="M 273.816406 486.019531 C 274.363281 487.902344 274.363281 487.902344 274.789062 489.90625 C 273.816406 490.875 273.816406 490.875 271.328125 490.9375 C 270.160156 490.90625 270.160156 490.90625 268.964844 490.875 C 268.644531 489.273438 268.324219 487.671875 267.992188 486.019531 C 270.410156 484.8125 271.304688 485.265625 273.816406 486.019531 Z M 273.816406 486.019531 " fill-opacity="1" fill-rule="nonzero"/><path fill="#eaeaea" d="M 428.179688 486.992188 C 430.183594 487.417969 430.183594 487.417969 432.0625 487.960938 C 432.671875 489.78125 432.671875 489.78125 433.035156 491.847656 C 432.394531 492.488281 431.753906 493.128906 431.09375 493.789062 C 429.03125 493.425781 429.03125 493.425781 427.210938 492.816406 C 427.167969 491.199219 427.167969 489.582031 427.210938 487.960938 C 427.53125 487.640625 427.851562 487.320312 428.179688 486.992188 Z M 428.179688 486.992188 " fill-opacity="1" fill-rule="nonzero"/><path fill="#e3e3e2" d="M 516.527344 380.195312 C 518.589844 380.558594 518.589844 380.558594 520.410156 381.167969 C 520.957031 383.046875 520.957031 383.046875 521.378906 385.050781 C 520.410156 386.019531 520.410156 386.019531 517.921875 386.082031 C 516.75 386.050781 516.75 386.050781 515.554688 386.019531 C 514.949219 384.199219 514.949219 384.199219 514.585938 382.136719 C 515.226562 381.496094 515.867188 380.855469 516.527344 380.195312 Z M 516.527344 380.195312 " fill-opacity="1" fill-rule="nonzero"/><path fill="#ebebeb" d="M 380.609375 570.488281 C 382.671875 571.398438 382.671875 571.398438 384.492188 572.429688 C 384.171875 574.03125 383.851562 575.632812 383.523438 577.28125 C 382.238281 576.960938 380.957031 576.640625 379.636719 576.3125 C 379.316406 574.710938 378.996094 573.109375 378.667969 571.457031 C 379.308594 571.136719 379.949219 570.816406 380.609375 570.488281 Z M 380.609375 570.488281 " fill-opacity="1" fill-rule="nonzero"/><path fill="#e8e8e8" d="M 491.285156 543.300781 C 492.910156 543.578125 494.53125 543.902344 496.136719 544.273438 C 495.816406 545.875 495.496094 547.476562 495.167969 549.128906 C 493.566406 549.128906 491.964844 549.128906 490.3125 549.128906 C 490.273438 547.511719 490.273438 545.890625 490.3125 544.273438 C 490.632812 543.953125 490.953125 543.632812 491.285156 543.300781 Z M 491.285156 543.300781 " fill-opacity="1" fill-rule="nonzero"/><path fill="#efefef" d="M 545.652344 516.117188 C 547.277344 516.394531 548.898438 516.71875 550.503906 517.089844 C 550.503906 518.691406 550.503906 520.292969 550.503906 521.941406 C 548.902344 521.941406 547.300781 521.941406 545.652344 521.941406 C 545.28125 520.335938 544.957031 518.714844 544.679688 517.089844 C 545 516.769531 545.320312 516.449219 545.652344 516.117188 Z M 545.652344 516.117188 " fill-opacity="1" fill-rule="nonzero"/><path fill="#f1f1f1" d="M 478.664062 491.847656 C 479.945312 491.847656 481.226562 491.847656 482.546875 491.847656 C 483.152344 493.667969 483.152344 493.667969 483.515625 495.730469 C 482.875 496.371094 482.234375 497.011719 481.574219 497.671875 C 479.027344 497.308594 479.027344 497.308594 476.722656 496.699219 C 477.570312 492.9375 477.570312 492.9375 478.664062 491.847656 Z M 478.664062 491.847656 " fill-opacity="1" fill-rule="nonzero"/><path fill="#e8e8e8" d="M 257.3125 421.945312 C 258.914062 421.945312 260.515625 421.945312 262.167969 421.945312 C 262.488281 423.546875 262.808594 425.148438 263.136719 426.796875 C 261.53125 427.167969 259.910156 427.492188 258.285156 427.769531 C 257.3125 426.796875 257.3125 426.796875 257.253906 424.308594 C 257.273438 423.527344 257.292969 422.75 257.3125 421.945312 Z M 257.3125 421.945312 " fill-opacity="1" fill-rule="nonzero"/><path fill="#eaeaea" d="M 300.03125 380.195312 C 301.65625 380.472656 303.277344 380.796875 304.882812 381.167969 C 304.5625 382.769531 304.242188 384.371094 303.914062 386.019531 C 302.3125 386.019531 300.710938 386.019531 299.058594 386.019531 C 299.019531 384.402344 299.019531 382.785156 299.058594 381.167969 C 299.378906 380.847656 299.699219 380.527344 300.03125 380.195312 Z M 300.03125 380.195312 " fill-opacity="1" fill-rule="nonzero"/><path fill="#f1f2f1" d="M 297.117188 529.710938 C 298.71875 530.03125 300.320312 530.351562 301.972656 530.679688 C 301.652344 532.28125 301.332031 533.886719 301 535.535156 C 299.398438 535.214844 297.796875 534.894531 296.148438 534.566406 C 296.46875 532.960938 296.789062 531.359375 297.117188 529.710938 Z M 297.117188 529.710938 " fill-opacity="1" fill-rule="nonzero"/><path fill="#f8f8f8" d="M 269.933594 516.117188 C 271.535156 516.4375 273.136719 516.757812 274.789062 517.089844 C 274.46875 518.691406 274.148438 520.292969 273.816406 521.941406 C 272.214844 521.621094 270.613281 521.300781 268.964844 520.972656 C 269.285156 519.371094 269.605469 517.769531 269.933594 516.117188 Z M 269.933594 516.117188 " fill-opacity="1" fill-rule="nonzero"/><path fill="#f5f6f6" d="M 546.621094 485.050781 C 548.222656 485.371094 549.824219 485.691406 551.476562 486.019531 C 551.15625 487.621094 550.835938 489.226562 550.503906 490.875 C 548.902344 490.554688 547.300781 490.234375 545.652344 489.90625 C 545.972656 488.300781 546.292969 486.699219 546.621094 485.050781 Z M 546.621094 485.050781 " fill-opacity="1" fill-rule="nonzero"/><path fill="#f4f4f4" d="M 369.929688 478.253906 C 371.53125 478.574219 373.132812 478.894531 374.785156 479.226562 C 374.464844 480.828125 374.144531 482.429688 373.8125 484.078125 C 372.210938 483.757812 370.609375 483.4375 368.960938 483.109375 C 369.28125 481.507812 369.601562 479.90625 369.929688 478.253906 Z M 369.929688 478.253906 " fill-opacity="1" fill-rule="nonzero"/><path fill="#f1f2f1" d="M 293.234375 439.417969 C 294.835938 439.738281 296.4375 440.058594 298.089844 440.390625 C 297.769531 441.992188 297.449219 443.59375 297.117188 445.246094 C 295.515625 444.925781 293.914062 444.605469 292.261719 444.273438 C 292.582031 442.671875 292.902344 441.070312 293.234375 439.417969 Z M 293.234375 439.417969 " fill-opacity="1" fill-rule="nonzero"/><path fill="#e8e8e8" d="M 461.1875 439.417969 C 462.789062 439.738281 464.390625 440.058594 466.042969 440.390625 C 465.722656 441.992188 465.402344 443.59375 465.070312 445.246094 C 463.46875 444.925781 461.867188 444.605469 460.21875 444.273438 C 460.539062 442.671875 460.859375 441.070312 461.1875 439.417969 Z M 461.1875 439.417969 " fill-opacity="1" fill-rule="nonzero"/><path fill="#f5f5f5" d="M 275.757812 430.679688 C 277.359375 431 278.964844 431.320312 280.613281 431.652344 C 280.292969 433.253906 279.972656 434.855469 279.644531 436.507812 C 278.039062 436.1875 276.4375 435.867188 274.789062 435.535156 C 275.109375 433.933594 275.429688 432.332031 275.757812 430.679688 Z M 275.757812 430.679688 " fill-opacity="1" fill-rule="nonzero"/><path fill="#f2f2f2" d="M 558.273438 421.945312 C 559.875 422.265625 561.476562 422.585938 563.125 422.914062 C 562.804688 424.515625 562.484375 426.117188 562.15625 427.769531 C 560.554688 427.449219 558.949219 427.128906 557.300781 426.796875 C 557.621094 425.195312 557.941406 423.59375 558.273438 421.945312 Z M 558.273438 421.945312 " fill-opacity="1" fill-rule="nonzero"/><path fill="#f2f2f2" d="M 388.375 486.992188 C 390.378906 487.417969 390.378906 487.417969 392.257812 487.960938 C 392.804688 489.84375 392.804688 489.84375 393.230469 491.847656 C 392.257812 492.816406 392.257812 492.816406 389.773438 492.878906 C 388.601562 492.847656 388.601562 492.847656 387.40625 492.816406 C 387.363281 491.199219 387.367188 489.582031 387.40625 487.960938 C 387.726562 487.640625 388.046875 487.320312 388.375 486.992188 Z M 388.375 486.992188 " fill-opacity="1" fill-rule="nonzero"/><path fill="#e8e9e9" d="M 451.480469 505.4375 C 453.105469 505.714844 454.726562 506.039062 456.335938 506.410156 C 456.015625 507.691406 455.695312 508.972656 455.363281 510.292969 C 454.082031 510.613281 452.800781 510.933594 451.480469 511.265625 C 451.109375 509.65625 450.785156 508.035156 450.507812 506.410156 C 450.828125 506.089844 451.148438 505.769531 451.480469 505.4375 Z M 451.480469 505.4375 " fill-opacity="1" fill-rule="nonzero"/><path fill="#d8d9d9" d="M 486.429688 400.585938 C 488.433594 401.007812 488.433594 401.007812 490.3125 401.554688 C 489.992188 403.15625 489.671875 404.757812 489.34375 406.410156 C 487.742188 406.089844 486.140625 405.769531 484.488281 405.4375 C 485.335938 401.675781 485.335938 401.675781 486.429688 400.585938 Z M 486.429688 400.585938 " fill-opacity="1" fill-rule="nonzero"/><path fill="#ebebeb" d="M 359.25 526.796875 C 361.171875 527.277344 361.171875 527.277344 363.132812 527.769531 C 362.8125 529.371094 362.492188 530.972656 362.164062 532.621094 C 360.882812 532.300781 359.601562 531.980469 358.28125 531.652344 C 358.601562 530.050781 358.921875 528.449219 359.25 526.796875 Z M 359.25 526.796875 " fill-opacity="1" fill-rule="nonzero"/><path fill="#eeeeef" d="M 334.007812 400.585938 C 335.929688 401.066406 335.929688 401.066406 337.894531 401.554688 C 337.574219 403.15625 337.25 404.757812 336.921875 406.410156 C 335.640625 406.089844 334.359375 405.769531 333.039062 405.4375 C 333.359375 403.835938 333.679688 402.234375 334.007812 400.585938 Z M 334.007812 400.585938 " fill-opacity="1" fill-rule="nonzero"/><path fill="#f2f2f2" d="M 364.105469 418.058594 C 365.707031 418.058594 367.308594 418.058594 368.960938 418.058594 C 368.960938 419.660156 368.960938 421.265625 368.960938 422.914062 C 367.355469 422.914062 365.753906 422.914062 364.105469 422.914062 C 364.105469 421.3125 364.105469 419.710938 364.105469 418.058594 Z M 364.105469 418.058594 " fill-opacity="1" fill-rule="nonzero"/><path fill="#f3f3f3" d="M 407.792969 554.953125 C 410.195312 555.433594 410.195312 555.433594 412.648438 555.921875 C 412.328125 557.207031 412.007812 558.488281 411.675781 559.808594 C 410.394531 559.808594 409.113281 559.808594 407.792969 559.808594 C 407.792969 558.207031 407.792969 556.601562 407.792969 554.953125 Z M 407.792969 554.953125 " fill-opacity="1" fill-rule="nonzero"/><path fill="#1d1d1d" d="M 397.113281 278.253906 C 399.675781 278.253906 402.238281 278.253906 404.878906 278.253906 C 402.597656 280.898438 400.390625 281.957031 397.113281 283.109375 C 397.113281 282.46875 397.113281 281.828125 397.113281 281.167969 C 397.753906 281.167969 398.394531 281.167969 399.054688 281.167969 C 399.054688 280.527344 399.054688 279.886719 399.054688 279.226562 C 398.414062 278.90625 397.773438 278.585938 397.113281 278.253906 Z M 397.113281 278.253906 " fill-opacity="1" fill-rule="nonzero"/></svg>