<svg xmlns="http://www.w3.org/2000/svg" viewBox="0 0 500 500">
  <rect width="500" height="500" rx="90" fill="#FF3670"/>
  <path d="M250 390 C210 390 185 360 185 320 L185 270
             C145 240 110 195 110 140 L110 120
             C150 120 185 135 210 162
             C222 148 235 140 250 138
             C265 140 278 148 290 162
             C315 135 350 120 390 120 L390 140
             C390 195 355 240 315 270 L315 320
             C315 360 290 390 250 390 Z"
        fill="#ffffff"/>
</svg>